<?xml version="1.0" encoding="UTF-8" standalone="no"?>
<svg
   xmlns:dc="http://purl.org/dc/elements/1.1/"
   xmlns:cc="http://creativecommons.org/ns#"
   xmlns:rdf="http://www.w3.org/1999/02/22-rdf-syntax-ns#"
   xmlns:svg="http://www.w3.org/2000/svg"
   xmlns="http://www.w3.org/2000/svg"
   xmlns:xlink="http://www.w3.org/1999/xlink"
   xmlns:sodipodi="http://sodipodi.sourceforge.net/DTD/sodipodi-0.dtd"
   xmlns:inkscape="http://www.inkscape.org/namespaces/inkscape"
   version="1.1"
   viewBox="0 0 210 210"
   id="svg2"
   inkscape:version="0.91 r"
   sodipodi:docname="hack4femlogo.svg"
   inkscape:export-filename="/home/nrw/Documents/hack4fem/logo/hack4femlogo.png"
   inkscape:export-xdpi="300"
   inkscape:export-ydpi="300">
  <defs
     id="defs10">
    <marker
       inkscape:stockid="Arrow1Mend"
       orient="auto"
       refY="0.0"
       refX="0.0"
       id="marker4707"
       style="overflow:visible;"
       inkscape:isstock="true">
      <path
         id="path4404"
         d="M 0.0,0.0 L 5.0,-5.0 L -12.5,0.0 L 5.0,5.0 L 0.0,0.0 z "
         style="fill-rule:evenodd;stroke:#000000;stroke-width:1pt;stroke-opacity:1;fill:#000000;fill-opacity:1"
         transform="scale(0.4) rotate(180) translate(10,0)" />
    </marker>
    <marker
       inkscape:stockid="Arrow1Mstart"
       orient="auto"
       refY="0.0"
       refX="0.0"
       id="Arrow1Mstart"
       style="overflow:visible"
       inkscape:isstock="true">
      <path
         id="path4401"
         d="M 0.0,0.0 L 5.0,-5.0 L -12.5,0.0 L 5.0,5.0 L 0.0,0.0 z "
         style="fill-rule:evenodd;stroke:#000000;stroke-width:1pt;stroke-opacity:1;fill:#000000;fill-opacity:1"
         transform="scale(0.4) translate(10,0)" />
    </marker>
    <marker
       inkscape:stockid="Arrow1Mend"
       orient="auto"
       refY="0.0"
       refX="0.0"
       id="Arrow1Mend"
       style="overflow:visible;"
       inkscape:isstock="true">
      <path
         id="path5874"
         d="M 0.0,0.0 L 5.0,-5.0 L -12.5,0.0 L 5.0,5.0 L 0.0,0.0 z "
         style="fill-rule:evenodd;stroke:#000000;stroke-width:1.0pt;"
         transform="scale(0.4) rotate(180) translate(10,0)" />
    </marker>
    <marker
       inkscape:stockid="Arrow1Lstart"
       orient="auto"
       refY="0.0"
       refX="0.0"
       id="marker6315"
       style="overflow:visible"
       inkscape:isstock="true">
      <path
         id="path6317"
         d="M 0.0,0.0 L 5.0,-5.0 L -12.5,0.0 L 5.0,5.0 L 0.0,0.0 z "
         style="fill-rule:evenodd;stroke:#000000;stroke-width:1pt;stroke-opacity:1;fill:#000000;fill-opacity:1"
         transform="scale(0.8) translate(12.5,0)" />
    </marker>
    <marker
       inkscape:stockid="Arrow1Lstart"
       orient="auto"
       refY="0.0"
       refX="0.0"
       id="marker6257"
       style="overflow:visible"
       inkscape:isstock="true">
      <path
         id="path6259"
         d="M 0.0,0.0 L 5.0,-5.0 L -12.5,0.0 L 5.0,5.0 L 0.0,0.0 z "
         style="fill-rule:evenodd;stroke:#000000;stroke-width:1pt;stroke-opacity:1;fill:#000000;fill-opacity:1"
         transform="scale(0.8) translate(12.5,0)" />
    </marker>
    <marker
       inkscape:stockid="Arrow1Lend"
       orient="auto"
       refY="0.0"
       refX="0.0"
       id="Arrow1Lend"
       style="overflow:visible;"
       inkscape:isstock="true">
      <path
         id="path5868"
         d="M 0.0,0.0 L 5.0,-5.0 L -12.5,0.0 L 5.0,5.0 L 0.0,0.0 z "
         style="fill-rule:evenodd;stroke:#000000;stroke-width:1pt;stroke-opacity:1;fill:#000000;fill-opacity:1"
         transform="scale(0.8) rotate(180) translate(12.5,0)" />
    </marker>
    <marker
       inkscape:stockid="Arrow1Lstart"
       orient="auto"
       refY="0.0"
       refX="0.0"
       id="Arrow1Lstart"
       style="overflow:visible"
       inkscape:isstock="true">
      <path
         id="path5865"
         d="M 0.0,0.0 L 5.0,-5.0 L -12.5,0.0 L 5.0,5.0 L 0.0,0.0 z "
         style="fill-rule:evenodd;stroke:#000000;stroke-width:1pt;stroke-opacity:1;fill:#000000;fill-opacity:1"
         transform="scale(0.8) translate(12.5,0)" />
    </marker>
    <pattern
       patternTransform="matrix(1.4658979,0.89884151,-0.89884151,1.4658979,-3168.4653,-5554.9777)"
       id="pattern3089"
       xlink:href="#pattern3084"
       inkscape:collect="always" />
    <pattern
       patternTransform="matrix(1.6910565,0.82316945,-0.82316945,1.6910565,-3151.7112,-5826.11)"
       id="pattern3084"
       xlink:href="#pattern3081"
       inkscape:collect="always" />
    <pattern
       patternTransform="translate(-3638.4799,-1909.4908)"
       id="pattern3081"
       xlink:href="#pattern3074"
       inkscape:collect="always" />
    <pattern
       id="pattern3074"
       patternTransform="translate(-3589.01,-1806.6576)"
       height="3458.9835"
       width="3458.9835"
       patternUnits="userSpaceOnUse" />
    <style
       id="style5843"
       type="text/css">
    .str0 {stroke:#2B2A29;stroke-width:0.125469}
    .fil0 {fill:#2B2A29}
  </style>
  </defs>
  <sodipodi:namedview
     pagecolor="#ffffff"
     bordercolor="#666666"
     borderopacity="1"
     objecttolerance="10"
     gridtolerance="10"
     guidetolerance="10"
     inkscape:pageopacity="1"
     inkscape:pageshadow="2"
     inkscape:window-width="2506"
     inkscape:window-height="1389"
     id="namedview8"
     showgrid="false"
     inkscape:zoom="4"
     inkscape:cx="172.50301"
     inkscape:cy="80.585898"
     inkscape:window-x="54"
     inkscape:window-y="25"
     inkscape:window-maximized="1"
     inkscape:current-layer="svg2" />
  <metadata
     id="metadata6">
    <rdf:RDF>
      <cc:Work>
        <dc:format>image/svg+xml</dc:format>
        <dc:type
           rdf:resource="http://purl.org/dc/dcmitype/StillImage" />
        <cc:license
           rdf:resource="http://creativecommons.org/publicdomain/zero/1.0/" />
        <dc:publisher>
          <cc:Agent
             rdf:about="http://openclipart.org/">
            <dc:title>Openclipart</dc:title>
          </cc:Agent>
        </dc:publisher>
        <dc:title></dc:title>
        <dc:date>2007-03-30T13:45:40</dc:date>
        <dc:description />
        <dc:source>https://openclipart.org/detail/3699/female-symbol-by-kumar35885</dc:source>
        <dc:creator>
          <cc:Agent>
            <dc:title>kumar35885</dc:title>
          </cc:Agent>
        </dc:creator>
        <dc:subject>
          <rdf:Bag>
            <rdf:li>externalsource</rdf:li>
            <rdf:li>female</rdf:li>
            <rdf:li>female symbol</rdf:li>
            <rdf:li>symbol</rdf:li>
            <rdf:li>women</rdf:li>
          </rdf:Bag>
        </dc:subject>
      </cc:Work>
      <cc:License
         rdf:about="http://creativecommons.org/publicdomain/zero/1.0/">
        <cc:permits
           rdf:resource="http://creativecommons.org/ns#Reproduction" />
        <cc:permits
           rdf:resource="http://creativecommons.org/ns#Distribution" />
        <cc:permits
           rdf:resource="http://creativecommons.org/ns#DerivativeWorks" />
      </cc:License>
    </rdf:RDF>
  </metadata>
  <path
     style="fill:#000000;stroke-width:0.1;stroke-miterlimit:4;stroke-dasharray:none"
     d="m 417.66281,189.90935 c 0,-18.56973 -0.0769,-33.81068 -0.17086,-33.86875 -0.094,-0.0581 -2.66972,0.44746 -5.72388,1.12345 -23.57174,5.21709 -34.29564,7.6093 -34.55165,7.70756 -0.16444,0.0631 -0.35484,-0.0309 -0.42312,-0.20879 l -0.12414,-0.32351 15.29627,-6.80034 c 8.41295,-3.74017 15.28491,-6.89027 15.27102,-7.0002 -0.0139,-0.10994 -1.39307,-0.4549 -3.06483,-0.76661 -1.67177,-0.31168 -3.15487,-0.68318 -3.29578,-0.82552 l -0.25621,-0.25881 6.13902,-3.14151 6.13902,-3.14152 -0.14549,-0.34003 c -0.35398,-0.82727 -3.92764,-13.04226 -3.86803,-13.22111 0.0753,-0.22598 2.28099,-1.36921 18.9391,-9.81657 6.52332,-3.30798 11.98544,-5.96662 12.13804,-5.90806 0.1526,0.0586 0.67501,1.49505 1.16092,3.19222 0.48591,1.69717 0.95089,3.19484 1.03329,3.32817 l 0.14981,0.24241 1.31762,-0.923 c 0.72469,-0.50766 1.44879,-0.92301 1.60911,-0.92301 0.16033,0 0.98558,1.30063 1.83389,2.89028 0.84832,1.58964 1.64382,2.90714 1.76779,2.92774 0.12397,0.0206 1.24549,-0.48945 2.49228,-1.13344 l 2.26688,-1.17091 0.14992,-1.92685 0.14992,-1.92685 0.55799,-1.52822 c 1.57915,-4.32503 5.02358,-7.69926 9.22979,-9.04165 l 1.47348,-0.47026 2.07212,-0.12005 2.07213,-0.12007 1.63255,0.49588 1.63255,0.49587 1.00963,1.03883 c 0.5553,0.57136 0.97939,1.18565 0.94243,1.36511 -0.037,0.17945 -2.28673,1.66631 -4.99948,3.30412 l -4.93228,2.97785 0.0658,3.40821 0.0658,3.40821 0.25469,0.45526 c 0.19123,0.34181 4.86116,3.2249 5.98117,3.69261 0.0889,0.0371 2.36087,-1.26353 5.04888,-2.89028 2.68801,-1.62677 5.03606,-2.95775 5.21787,-2.95775 l 0.33058,0 0.5046,1.04238 0.50461,1.04239 -0.13295,1.58582 -0.13295,1.58582 -0.6586,1.39551 c -0.8767,1.85762 -2.52298,3.99821 -3.9468,5.13187 -1.47281,1.17269 -3.9518,2.38728 -5.84506,2.86383 l -1.47348,0.3709 -2.38022,-0.11871 -2.38023,-0.11871 -1.70016,-0.61619 c -0.93509,-0.33891 -1.82843,-0.71951 -1.9852,-0.84575 l -0.28504,-0.22955 -2.94527,1.32313 c -1.61989,0.72772 -2.94526,1.40617 -2.94526,1.50766 0,0.10148 0.40804,0.99606 0.90675,1.98796 0.49872,0.9919 0.90286,1.93322 0.89809,2.09184 -0.005,0.15861 -1.89202,2.63461 -4.19389,5.50221 l -4.18522,5.21383 0.0568,34.90998 0.0568,34.90997 c 0,0 0.0196,-3.03379 0.009,1.92682 l -11.35925,0 -20.27331,0 0,-33.76315 z m 30.94293,32.2896 -0.0574,-35.13674 -0.0574,-35.13673 4.31987,-5.39529 4.31986,-5.39529 -1.04756,-1.92177 c -0.57615,-1.05696 -1.01513,-2.08265 -0.9755,-2.27928 l 0.0721,-0.35752 2.94695,-1.32959 c 1.62082,-0.73128 3.11277,-1.33256 3.31544,-1.33621 0.20267,-0.004 0.93019,0.2418 1.6167,0.5454 1.42061,0.62827 4.23608,1.26149 5.60885,1.26149 1.62795,0 4.3691,-0.68563 6.12058,-1.53091 l 1.70017,-0.82052 1.81606,-1.8279 1.81607,-1.82791 0.71918,-1.47347 c 0.39555,-0.8104 0.84179,-2.14151 0.99165,-2.95801 l 0.27246,-1.48453 -0.47518,-1.07423 -0.47517,-1.07421 -0.85907,0.54183 c -0.47248,0.29802 -2.72858,1.68067 -5.01356,3.07257 l -4.1545,2.53073 -3.06665,-1.74354 c -1.68665,-0.95893 -3.24992,-1.90422 -3.47393,-2.10062 l -0.40728,-0.3571 -0.14695,-3.85458 -0.14696,-3.85461 4.99846,-3.02092 c 2.74915,-1.66151 4.99845,-3.10287 4.99845,-3.20303 0,-0.10016 -0.39415,-0.53819 -0.87589,-0.97343 l -0.8759,-0.79131 -1.22097,-0.41337 -1.22097,-0.41337 -2.0412,0.0145 -2.04119,0.0145 -1.93586,0.66726 c -2.35198,0.81069 -4.10216,1.93871 -5.72107,3.68734 -1.52981,1.65236 -2.25365,2.88241 -2.99389,5.08752 l -0.58332,1.73768 -0.13956,1.80977 -0.13956,1.80977 -2.61702,1.3581 c -1.43936,0.74696 -2.73144,1.35811 -2.8713,1.35811 -0.13985,0 -0.94342,-1.32612 -1.7857,-2.94694 -0.84227,-1.62082 -1.60623,-2.94695 -1.69766,-2.94695 -0.25614,0 -2.22139,1.28398 -2.39486,1.56466 -0.0846,0.13686 -0.33619,0.24885 -0.55912,0.24885 l -0.40532,0 -0.98593,-3.40838 -0.98593,-3.40837 -0.26688,0.0647 c -0.14679,0.0356 -6.9893,3.47802 -15.20559,7.64982 l -14.9387,7.58511 1.20937,4.08933 c 0.99777,3.37388 2.31331,7.54719 2.89807,9.1936 l 0.12211,0.34381 -5.96317,3.05414 -5.96316,3.05416 3.57878,0.6682 3.57879,0.66821 -0.0651,0.31054 -0.0651,0.31057 -14.33527,6.37483 c -7.8844,3.50616 -14.30584,6.40428 -14.26986,6.44026 0.036,0.036 8.52645,-1.80906 18.86771,-4.1001 10.34126,-2.29103 18.87939,-4.11785 18.97363,-4.05962 0.0942,0.0583 0.17135,15.35033 0.17135,33.98241 l 0,33.87649 19.83521,0 10.67896,0 z m -29.80949,-33.44128 0,-33.55471 0.51005,-0.212 c 0.28052,-0.11661 3.36632,-0.83543 6.85731,-1.59739 3.491,-0.76194 6.55129,-1.44502 6.80065,-1.51796 l 0.45338,-0.13258 -3.25445,-0.85844 c -1.78994,-0.47215 -3.31328,-0.91729 -3.3852,-0.98922 -0.26615,-0.26613 0.44997,-0.64087 6.30571,-3.2996 7.58802,-3.44528 8.03248,-3.49248 5.17949,-0.55018 l -1.61505,1.66562 0.1417,0.36926 c 0.0779,0.2031 0.23203,0.33528 0.34244,0.29375 0.1104,-0.0415 1.75528,-1.80969 3.65528,-3.92923 1.89999,-2.11953 3.71752,-4.13593 4.03894,-4.48091 l 0.58441,-0.62721 -2.48297,-5.01125 -2.48297,-5.01124 0,-2.18706 0,-2.18703 0.74366,-1.51061 0.74367,-1.5106 1.16322,-1.04583 1.16321,-1.04583 0.45025,0.0676 0.45025,0.0676 4.97188,9.40756 c 2.73453,5.17417 5.23465,9.93241 5.55583,10.57388 l 0.58397,1.16634 -4.22929,5.2777 -4.22929,5.27769 0,35.32326 0,35.32327 -14.50804,0 -14.50804,0 0,-33.5547 z m 28.56271,-2.13998 0,-35.24132 4.11932,-5.12288 4.11933,-5.12288 -0.20896,-0.52441 c -0.11492,-0.28842 -2.53765,-4.92368 -5.38383,-10.3006 l -5.17488,-9.77621 -0.32828,0 c -0.52568,0 -2.21767,1.83855 -2.82179,3.06621 l -0.55484,1.12752 0,2.38023 0,2.38023 2.4369,4.79679 c 1.34029,2.63821 2.4369,4.90009 2.4369,5.02636 0,0.12628 -0.28234,0.51798 -0.62743,0.87043 -0.34508,0.35246 -2.29788,2.50249 -4.33956,4.77788 -2.04167,2.27539 -3.76745,4.13706 -3.83506,4.13706 -0.23713,0 -1.17223,-0.98843 -1.17223,-1.2391 0,-0.13933 0.46689,-0.7081 1.03753,-1.26394 0.96539,-0.94033 1.74808,-1.99054 1.30864,-1.75589 -0.10595,0.0566 -2.55778,1.16435 -5.44852,2.46173 l -5.25589,2.35886 3.55573,0.92692 3.55572,0.92692 0,0.32239 0,0.3224 -0.56672,0.0794 c -0.31169,0.0437 -3.72272,0.78322 -7.58005,1.64349 -3.85733,0.86027 -7.04514,1.56413 -7.08401,1.56413 -0.0389,0 -0.0707,14.94442 -0.0707,33.20981 l 0,33.20981 13.94133,0 13.94132,0 0,-35.2413 z m -23.23554,-41.69928 c -0.81681,-0.36305 -1.58865,-1.1655 -1.89244,-1.96753 -0.55934,-1.4767 -5.03037,-17.00966 -4.93823,-17.15608 0.0571,-0.0907 1.53935,-0.87535 3.29395,-1.74365 l 3.19018,-1.57875 0.19413,0.21862 c 0.22147,0.24937 5.93296,19.59416 5.93296,20.09487 0,0.48731 -1.10976,1.45701 -2.26688,1.9808 -1.17074,0.52994 -2.53055,0.58866 -3.51367,0.15172 z m 3.65373,-0.84399 c 0.5134,-0.23886 1.0958,-0.61365 1.29422,-0.83291 l 0.36075,-0.39862 -2.8394,-9.6266 c -1.56166,-5.29463 -2.90988,-9.69875 -2.99602,-9.78692 -0.11907,-0.12189 -5.2268,2.28612 -5.6822,2.67882 -0.10248,0.0884 4.40161,15.42382 4.90376,16.69623 0.73605,1.86512 2.63453,2.35134 4.95889,1.27 z m -11.88046,-1.1221 c -0.86922,-0.17945 -1.54216,-0.73206 -2.02244,-1.66083 -0.40752,-0.78806 -3.46546,-11.06307 -3.46546,-11.64432 l 0,-0.40421 2.94402,-1.4581 2.94402,-1.45809 0.20968,0.21827 c 0.20506,0.21347 4.32993,13.82996 4.32993,14.2934 0,0.30162 -1.08032,1.31064 -1.8135,1.69379 -0.78325,0.40931 -2.23406,0.60426 -3.12625,0.42009 z m 2.37885,-0.70647 c 0.34873,-0.14978 0.90678,-0.45721 1.24011,-0.68317 l 0.60606,-0.41085 -0.0686,-0.73835 c -0.0999,-1.07441 -3.7966,-13.31013 -4.02135,-13.31013 -0.10449,0 -1.31927,0.56636 -2.69951,1.25857 l -2.50952,1.25857 0.10414,0.27158 c 0.0573,0.14936 0.73265,2.41377 1.50082,5.03202 0.76818,2.61825 1.558,5.20264 1.75517,5.74306 l 0.35849,0.98263 0.71066,0.43334 0.71066,0.43334 0.83941,0.002 c 0.46168,0 1.12474,-0.1217 1.47348,-0.27146 z m 13.2245,0.35863 c -0.38808,-0.32653 -0.85071,-0.87432 -1.02806,-1.21727 -0.17735,-0.34296 -1.55509,-4.78581 -3.06164,-9.87302 l -2.7392,-9.24944 0.29286,-0.27509 c 0.48065,-0.45147 6.31683,-3.3326 6.46023,-3.18921 0.0728,0.0728 1.60008,5.09833 3.39403,11.16789 l 3.26174,11.0356 -0.61731,0.64434 c -0.33952,0.35437 -1.03823,0.84808 -1.55267,1.09713 l -0.93537,0.4528 -1.3845,0 -1.38451,0 z m 4.18448,-0.39251 c 0.62339,-0.29063 1.27692,-0.70186 1.45229,-0.91386 l 0.31885,-0.38543 -3.01484,-10.24831 c -1.65816,-5.63658 -3.10039,-10.47956 -3.20497,-10.7622 l -0.19013,-0.51387 -2.69521,1.35106 c -1.48237,0.74308 -2.75141,1.4975 -2.82009,1.67648 -0.12661,0.32997 5.01309,18.04601 5.49865,18.95327 0.14518,0.27128 0.58898,0.69141 0.98623,0.93363 l 0.72227,0.44041 0.90675,-0.002 0.90676,-0.002 1.13344,-0.52844 z m 2.26721,-4.05757 c -0.81812,-2.34664 -5.76347,-19.73667 -5.6602,-19.90377 0.18982,-0.30711 6.3559,-3.38844 6.78069,-3.38844 l 0.33345,0 0.48044,1.64349 c 0.26425,0.90392 0.6766,2.2918 0.91635,3.08417 0.54393,1.79766 0.54309,2.09212 -0.009,3.02711 -0.24446,0.41433 -0.61411,1.41475 -0.82145,2.22315 l -0.37696,1.46983 0.12527,1.70016 0.12527,1.70016 1.37336,2.70778 1.37336,2.70777 -0.3078,0.46587 c -1.21392,1.83724 -4.00969,3.49071 -4.33321,2.56272 z m 3.20976,-2.02085 0.85311,-0.87367 -1.35154,-2.73339 -1.35153,-2.73339 0,-2.64833 0,-2.64833 0.71997,-1.51978 0.71997,-1.51975 -0.82124,-2.83685 c -0.45168,-1.56026 -0.95085,-2.88657 -1.10927,-2.94736 -0.34584,-0.13271 -5.6826,2.58673 -5.83806,2.97487 -0.08,0.19967 4.6761,16.90541 5.42878,19.06867 l 0.10389,0.29859 0.8964,-0.50381 c 0.49302,-0.27709 1.2803,-0.89696 1.74952,-1.37747 z"
     id="path4718"
     inkscape:connector-curvature="0"
     sodipodi:nodetypes="ccscccsccscccccscsscssssscccsscccccscscccccsscccccssscccsccssscscccccccccccccsccsccsscccssccccscsccccssccccccssscccsssscsccccscsscccccccssscscccccccsccscsscccsccccccccccccssccccccccccccccscsscccsscsssscsccccccsssccccccscsccssccccsccsccssccccssccsccssccscccccccccscccsccccccccccsccsccccccccccscssccccccccccccccccccsscscsc" />
  <path
     style="fill:none;fill-rule:evenodd;stroke:#000000;stroke-width:0.5;stroke-linecap:butt;stroke-linejoin:miter;stroke-miterlimit:4;stroke-dasharray:none;stroke-opacity:1"
     d="m 285.25,147.4375 c -0.5625,0 -7.75,-1.3125 -7.75,-1.3125 L 330.375,119 c 0,0 1.75,-18.6875 18.5625,-14.375 l 1.625,2.3125 -9.875,6.1875 0.75,7.5625 6.3125,4.0625 10.25,-6.1875 1,2.25 c -3.84375,18.25 -20.5625,10.6875 -20.5625,10.6875 l -34.9375,15.375 7.93246,2.20201 -54.30746,12.23549 z"
     id="path5363"
     inkscape:connector-curvature="0"
     sodipodi:nodetypes="ccccccccccccccc" />
  <path
     style="fill:none;fill-rule:evenodd;stroke:#000000;stroke-width:0.5;stroke-linecap:butt;stroke-linejoin:round;stroke-miterlimit:4;stroke-dasharray:none;stroke-opacity:1"
     d="m 322.48438,115.77734 c -6.27558,2.65165 -4.86133,10.5625 -4.86133,10.5625 l 4.64062,9.72266 -7.82226,8.26562 4.10937,-4.41992 -22.62695,9.89844 0,69.47461 29.78711,0 0,-70.71094 8.48633,-10.69531 z m -23.88672,21.91602 -3.96875,-12.99414 z m 20.48437,-19.44141 -2.08984,-7.3457 -29.77735,15.01953 L 291,138.53125 c 0,0 2.93481,3.65221 7.61914,-0.74609 2.7934,8.51297 9.06836,1.90234 9.06836,1.90234 l -5.29883,-17.03516 5.29883,17.06641 c 0,0 2.09375,2.375 8.21875,-2.03125 l -5.12695,-17.24609 5.12695,17.15234 c 0,0 2.5,1.59375 5.71875,-3.15625"
     id="path5365"
     inkscape:connector-curvature="0"
     sodipodi:nodetypes="cccccccccccccccccccccccccc" />
  <g
     id="g5402">
    <path
       sodipodi:nodetypes="cccccc"
       inkscape:connector-curvature="0"
       id="path5365-5"
       d="m 393.92702,221.90416 -2.09007,-7.34695 -29.77615,15.02066 3.78428,12.60465 c 0,0 2.9375,3.65625 7.625,-0.75 l -4.4375,-15.46875"
       style="fill:none;fill-rule:evenodd;stroke:#000000;stroke-width:0.5;stroke-linecap:butt;stroke-linejoin:miter;stroke-miterlimit:4;stroke-dasharray:none;stroke-opacity:1" />
    <path
       sodipodi:nodetypes="ccc"
       inkscape:connector-curvature="0"
       id="path5367-8"
       d="m 376.25133,222.30752 6.28125,21.03125 c 0,0 -6.3125,6.65625 -9.09375,-1.96875"
       style="fill:none;fill-rule:evenodd;stroke:#000000;stroke-width:0.5;stroke-linecap:butt;stroke-linejoin:miter;stroke-miterlimit:4;stroke-dasharray:none;stroke-opacity:1" />
    <path
       inkscape:connector-curvature="0"
       id="path5369-5"
       d="m 384.00133,218.55752 6.75,22.78125 c 0,0 -4.125,5 -8.21875,2.03125"
       style="fill:none;fill-rule:evenodd;stroke:#000000;stroke-width:0.5;stroke-linecap:butt;stroke-linejoin:miter;stroke-miterlimit:4;stroke-dasharray:none;stroke-opacity:1" />
    <path
       sodipodi:nodetypes="cc"
       inkscape:connector-curvature="0"
       id="path5371-8"
       d="m 390.75133,241.30752 c 0,0 3.5625,0.59375 5.125,-3.78125"
       style="fill:none;fill-rule:evenodd;stroke:#000000;stroke-width:0.5;stroke-linecap:butt;stroke-linejoin:miter;stroke-miterlimit:4;stroke-dasharray:none;stroke-opacity:1" />
    <path
       sodipodi:nodetypes="cccccccccc"
       inkscape:connector-curvature="0"
       id="path5373-6"
       d="m 389.28663,247.97873 7.82237,-8.26431 -4.64039,-9.72272 c 0,0 -1.41421,-7.91076 4.86136,-10.56241 l 11.71145,22.09709 -8.48528,10.69499 0,70.71068 -29.78687,0 0,-69.47324 22.62742,-9.8995"
       style="fill:none;fill-rule:evenodd;stroke:#000000;stroke-width:0.5;stroke-linecap:butt;stroke-linejoin:miter;stroke-miterlimit:4;stroke-dasharray:none;stroke-opacity:1" />
  </g>
  <path
     id="path5365-9"
     style="fill:none;fill-opacity:1;fill-rule:evenodd;stroke:#000000;stroke-width:0.5;stroke-linecap:butt;stroke-linejoin:round;stroke-miterlimit:4;stroke-dasharray:none;stroke-opacity:1"
     d="m 552.09653,163.00038 c -6.27558,2.65165 -4.86133,10.5625 -4.86133,10.5625 l 4.64062,9.72266 -7.82226,8.26562 4.10937,-4.41992 -22.62695,9.89844 0,69.47461 29.78711,0 0,-70.71094 8.48633,-10.69531 z m -23.88672,21.91602 -4.94102,-15.02707 z m 20.48437,-19.44141 -2.08984,-7.3457 -29.77735,15.01953 3.78516,12.60547 c 0,0 2.93481,3.65221 7.61914,-0.74609 2.7934,8.51297 9.06836,1.90234 9.06836,1.90234 l -6.80143,-20.57069 6.80143,20.60194 c 0,0 2.09375,2.375 8.21875,-2.03125 l -7.51344,-22.5052 7.51344,22.41145 c 0,0 2.5,1.59375 5.71875,-3.15625"
     inkscape:connector-curvature="0"
     sodipodi:nodetypes="cccccccccccccccccccccccccc" />
  <path
     style="fill:none;fill-rule:evenodd;stroke:#000000;stroke-width:0.5;stroke-linecap:butt;stroke-linejoin:miter;stroke-miterlimit:4;stroke-dasharray:none;stroke-opacity:1"
     d="m 513.86215,194.80698 c -0.5625,0 -7.75,-1.3125 -7.75,-1.3125 l 52.875,-27.125 c 0,0 1.75,-18.6875 18.5625,-14.375 l 1.625,2.3125 -9.875,6.1875 0.75,7.5625 6.3125,4.0625 10.25,-6.1875 1,2.25 c -3.84375,18.25 -20.5625,10.6875 -20.5625,10.6875 l -34.9375,15.375 7.93246,2.20201 -54.30746,12.23549 z"
     id="path5363-4"
     inkscape:connector-curvature="0"
     sodipodi:nodetypes="ccccccccccccccc" />
  <path
     d="m -182.49722,-99.03256 -20,14 -2,8 -58,58.000001 -8,-5 -4,4 c 0,11.999999 -14,17.999999 -20,17.999999 l -33,33 c 0,10 11,21 21,21 l 33,-33 c 0,-6 6,-20 18,-20 l 4,-4 -5,-8 58,-58 8,-2 14,-20 z"
     id="path5520"
     inkscape:connector-curvature="0" />
  <path
     d="m 680.50278,-140.53256 -16,16 c 12,12 28,28 28,33 0,18 5,30 37,30 l 2,-4 -21,-12 c 0,-10 4,-18 13,-23 l 21,12 1,-2 c -5,-15 -15,-25 -35,-25 -5,0 -18,-13 -30,-25 z"
     id="path4-4"
     inkscape:connector-curvature="0" />
  <text
     xml:space="preserve"
     style="font-style:normal;font-weight:normal;font-size:40px;line-height:125%;font-family:Sans;letter-spacing:0px;word-spacing:0px;fill:#000000;fill-opacity:1;stroke:none;stroke-width:1px;stroke-linecap:butt;stroke-linejoin:miter;stroke-opacity:1"
     x="276.5"
     y="9.5"
     id="text5627"
     sodipodi:linespacing="125%"><tspan
       sodipodi:role="line"
       id="tspan5629"
       x="276.5"
       y="9.5" /></text>
  <text
     xml:space="preserve"
     style="font-style:normal;font-weight:normal;font-size:169.13525391px;line-height:125%;font-family:Sans;letter-spacing:0px;word-spacing:0px;fill:#000000;fill-opacity:1;stroke:none;stroke-width:1px;stroke-linecap:butt;stroke-linejoin:miter;stroke-opacity:1"
     x="318.56876"
     y="504.3248"
     id="text5631"
     sodipodi:linespacing="125%"><tspan
       sodipodi:role="line"
       id="tspan5633"
       x="318.56876"
       y="504.3248">● </tspan></text>
  <text
     xml:space="preserve"
     style="font-style:normal;font-weight:normal;font-size:126.07950592px;line-height:125%;font-family:Sans;letter-spacing:0px;word-spacing:0px;fill:#ffffff;fill-opacity:1;stroke:none;stroke-width:1px;stroke-linecap:butt;stroke-linejoin:miter;stroke-opacity:1"
     x="-329.76672"
     y="488.71796"
     id="text5631-8"
     sodipodi:linespacing="125%"><tspan
       sodipodi:role="line"
       id="tspan5633-8"
       x="-329.76672"
       y="488.71796">● </tspan></text>
  <text
     xml:space="preserve"
     style="font-style:normal;font-weight:normal;font-size:40px;line-height:125%;font-family:Sans;letter-spacing:0px;word-spacing:0px;fill:#000000;fill-opacity:1;stroke:none;stroke-width:1px;stroke-linecap:butt;stroke-linejoin:miter;stroke-opacity:1"
     x="338.35059"
     y="403.04016"
     id="text5655"
     sodipodi:linespacing="125%"><tspan
       sodipodi:role="line"
       id="tspan5657"
       x="338.35059"
       y="403.04016" /></text>
  <circle
     transform="matrix(0.83793042,0.54577707,-0.54577707,0.83793042,0,0)"
     id="circle5680"
     r="0.32111901"
     cx="255.41872"
     cy="-61.31488"
     style="stroke:#000000;stroke-width:0.05867897;stroke-miterlimit:4;stroke-dasharray:none;stroke-opacity:1" />
  <text
     xml:space="preserve"
     style="font-style:normal;font-variant:normal;font-weight:normal;font-stretch:normal;font-size:40px;line-height:125%;font-family:'Droid Sans Mono';-inkscape-font-specification:'Droid Sans Mono';letter-spacing:0px;word-spacing:0px;fill:#000000;fill-opacity:1;stroke:none;stroke-width:1px;stroke-linecap:butt;stroke-linejoin:miter;stroke-opacity:1"
     x="363.63278"
     y="93.736542"
     id="text5713"
     sodipodi:linespacing="125%"><tspan
       sodipodi:role="line"
       id="tspan5715"
       x="363.63278"
       y="93.736542"
       style="font-style:normal;font-variant:normal;font-weight:normal;font-stretch:normal;font-family:'Droid Sans Mono';-inkscape-font-specification:'Droid Sans Mono'"> λ</tspan></text>
  <text
     xml:space="preserve"
     style="font-style:normal;font-weight:normal;font-size:2.34434438px;line-height:125%;font-family:Sans;letter-spacing:0px;word-spacing:0px;fill:#000000;fill-opacity:1;stroke:none;stroke-width:1px;stroke-linecap:butt;stroke-linejoin:miter;stroke-opacity:1"
     x="104.92788"
     y="260.48587"
     id="text5721"
     sodipodi:linespacing="125%"
     transform="matrix(0.35075934,-0.96589216,0.89836043,0.37712669,0,0)"><tspan
       sodipodi:role="line"
       id="tspan5723"
       x="104.92788"
       y="260.48587"
       style="font-style:normal;font-variant:normal;font-weight:bold;font-stretch:normal;font-family:Purisa;-inkscape-font-specification:Purisa">f(x)</tspan></text>
  <text
     xml:space="preserve"
     style="font-style:normal;font-weight:normal;font-size:87.57137299px;line-height:125%;font-family:Sans;letter-spacing:0px;word-spacing:0px;fill:#000000;fill-opacity:1;stroke:none;stroke-width:1px;stroke-linecap:butt;stroke-linejoin:miter;stroke-opacity:1"
     x="525.3136"
     y="341.94064"
     id="text5725"
     sodipodi:linespacing="125%"
     transform="scale(0.86964076,1.1499001)"><tspan
       sodipodi:role="line"
       id="tspan5727"
       x="525.3136"
       y="341.94064"
       style="font-style:normal;font-variant:normal;font-weight:normal;font-stretch:normal;font-family:'Latin Modern Roman';-inkscape-font-specification:'Latin Modern Roman, '"
       dy="-5 0 4.73 -5 5 -5 0 5"><tspan
   style="font-style:normal;font-variant:normal;font-weight:normal;font-stretch:normal;font-size:100px;font-family:'Latin Modern Roman';-inkscape-font-specification:'Latin Modern Roman, '"
   id="tspan7103">∫ </tspan>f(x) dx</tspan></text>
  <g
     id="g5831"
     transform="translate(243.79446,-204.31907)">
    <ellipse
       ry="1.254189"
       rx="4.8188663"
       cy="255.12846"
       cx="86.609505"
       id="path2165"
       style="fill:#b3b3b3;fill-rule:evenodd" />
    <path
       inkscape:connector-curvature="0"
       id="path3147"
       style="fill:none;stroke:#000000;stroke-width:0.08593454;stroke-linecap:round;stroke-dasharray:0.34373816, 0.34373816"
       d="m 81.75798,255.22567 c -4.3e-4,-0.005 -4.3e-4,-0.0103 -4.3e-4,-0.0159 0,-0.73732 2.165121,-1.33586 4.833389,-1.33586 2.667837,0 4.832958,0.59854 4.832958,1.33586 0,0.006 0,0.0107 -4.3e-4,0.0159"
       inkscape:export-ydpi="90"
       inkscape:export-filename="C:\Documents and Settings\Pascal\Bureau\cone.png"
       inkscape:export-xdpi="90" />
    <path
       inkscape:connector-curvature="0"
       id="path2164"
       style="fill:none;stroke:#000000;stroke-width:0.08593454;stroke-linecap:round;stroke-dasharray:0.25780362, 0.25780362"
       d="m 86.590079,255.22567 0,-8.361"
       inkscape:export-ydpi="90"
       inkscape:export-filename="C:\Documents and Settings\Pascal\Bureau\cone.png"
       inkscape:export-xdpi="90" />
    <path
       inkscape:connector-curvature="0"
       id="path2162"
       style="fill:none;stroke:#000000;stroke-width:0.12890181;stroke-linejoin:round"
       d="m 86.600391,246.72202 -4.833388,8.36143 8.59e-4,0 c 0.03094,0.73002 2.184456,1.31953 4.832959,1.31953 2.648503,0 4.801592,-0.58951 4.832529,-1.31953 l -4.832959,-8.36143 z"
       inkscape:export-ydpi="90"
       inkscape:export-filename="C:\Documents and Settings\Pascal\Bureau\cone.png"
       inkscape:export-xdpi="90" />
    <path
       inkscape:connector-curvature="0"
       id="path3138"
       style="fill:none;stroke:#000000;stroke-width:0.08593454;stroke-linecap:round;stroke-dasharray:0.25780362, 0.25780362"
       d="m 86.590079,255.22567 4.833388,0"
       inkscape:export-ydpi="90"
       inkscape:export-filename="C:\Documents and Settings\Pascal\Bureau\cone.png"
       inkscape:export-xdpi="90" />
    <rect
       id="rect3152"
       style="opacity:0.75;fill:#cccccc;fill-opacity:0.45882;stroke:#000000;stroke-width:0.08593454"
       height="0.47147983"
       width="0.46030837"
       y="254.74315"
       x="86.600388" />
  </g>
  <g
     style="clip-rule:evenodd;fill-rule:evenodd;image-rendering:optimizeQuality;shape-rendering:geometricPrecision;text-rendering:geometricPrecision"
     id="g5853"
     transform="translate(334.47153,-8.0975055)">
    <g
       id="Layer_x0020_1">
      <path
         id="path5846"
         d="M 1.0213,9.6439 2.3811,10.57877 7.188,5.99487 4.9731,4.29517 1.0213,9.64387 Z m 14.538,-3.9092 1.3226,-3.2613 -6.5597,-1.5669 -0.65332,3.5056 2.9266,1.6572 2.9638,-0.33463 z M 9.2598,5.11852 8.27186,6.01086 l 0.015935,0 0.65332,0.50464 2.2362,-0.26029 -1.9175,-1.1367 z m -3.7658,-1.2322 2.199,1.6253 1.1738,-1.0836 0.66925,-3.1869 -4.0421,2.6451 z m -2.6451,7.2874 1.6572,3.5216 2.8151,-1.3385 1.1738,-6.3366 -0.67452,-0.52051 -4.9716,4.6741 z m 0.35056,4.8282 2.6133,4.6423 0.16462,-0.98794 -1.8803,-4.0846 -0.89761,0.43023 z m 3.4897,3.9677 -0.20715,1.3598 6.4322,0.3771 0.11154,-2.2574 -6.3366,0.52051 z m -3.7872,-4.5626 0.89767,-0.40903 -1.6625,-3.6756 -0.91354,-0.59491 1.6784,4.6795 z m 1.8484,-0.14874 1.8431,3.9677 6.4694,-0.55771 0.11154,-1.5084 -5.5559,-3.2454 -2.8682,1.3438 z m 12.392,-5.3487 -0.13281,-0.37716 -4.86,-2.7354 -2.9638,0.35056 -1.1738,6.2092 5.4602,3.1869 2.7567,-2.4433 0.9136,-4.1908 z m -1.0995,5.2 -2.199,2.0131 -0.11154,1.4872 1.62,-0.16468 0.69052,-3.3357 z m -0.37183,4.0952 -1.9759,0.19122 -0.07434,2.1778 4.5466,-1.0624 -2.4964,-1.3066 z m 2.3636,-9.5979 -0.11154,0.50458 0.91354,2.0131 3.4313,1.2322 -0.46744,-5.593 -3.7658,1.8431 z m -0.61618,-6.7457 -1.3597,3.1497 1.2322,2.7248 0.33463,0.22308 3.9146,-1.9015 -4.1218,-4.1961 z m 5.593,11.112 -3.6172,6.9475 -6.0552,1.5297 -7.5105,-0.43023 -3.4844,-6.0552 -2.2733,-6.2782 4.5626,-6.0977 5.37,-3.5216 7.5105,1.7687 5.0141,5.2 0.48331,6.9369 z m -5.9648,0.29742 -0.9136,4.3395 2.9479,1.5297 3.0913,-6.018 -3.4844,-1.365 -1.6413,1.5138 z m 0.69046,-3.1338 -0.48331,2.0502 1.0039,-0.8764 -0.52057,-1.1738 z m -2.1405,-4.7698 -2.0131,0.28149 2.8523,1.5829 -0.8392,-1.8644 z"
         class="fil0 str0"
         inkscape:connector-curvature="0"
         style="fill:#2b2a29;stroke:#2b2a29;stroke-width:0.125469" />
    </g>
  </g>
  <path
     inkscape:connector-curvature="0"
     d="m 117,134 a 65,65 0 1 0 -23,0 l 0,22 -26,0 0,21 26,0 0,27 23,0 0,-27 25,0 0,-21 -25,0 0,-22 z m 37,-64 a 48,48 0 0 1 -96,0 48,48 0 1 1 96,0 z"
     id="path4"
     style="fill:#000000;fill-opacity:1;stroke:none;stroke-width:6;stroke-linejoin:round;marker-start:" />
  <path
     inkscape:connector-curvature="0"
     id="path3103"
     d="m 98.949345,42.077577 c -0.0234,-4.8e-5 -0.0468,4.1e-4 -0.0701,0.003 -2.08816,0.209934 -3.443013,2.041161 -4.529009,3.654291 -1.640741,2.029275 -2.473531,4.613545 -4.236417,6.558827 -0.239649,0.339217 -0.453335,0.696007 -0.652226,1.066724 -1.742083,-0.416906 -3.310506,0.885071 -4.236417,2.215737 -2.464705,2.911791 -3.994535,6.510047 -6.479585,9.411552 -1.072704,1.353183 -1.982152,2.872303 -2.456512,4.525956 -0.802401,1.79016 -2.538744,3.201031 -2.691192,5.251329 0.276001,1.497623 1.418223,2.594313 2.07554,3.925543 1.253492,1.68897 2.947376,3.004701 4.029168,4.82464 1.5417,2.174361 2.501151,4.797935 4.495483,6.616735 0.980957,0.911536 1.682064,2.051714 2.301071,3.233697 1.626599,2.651521 3.763714,5.01625 4.986172,7.893752 0.2676,1.3022 -0.524326,2.50435 -0.53641,3.79449 -0.515187,4.10418 -0.931246,8.24364 -1.910954,12.27342 -0.537317,2.77012 -0.868438,5.69232 -0.301736,8.46673 0.388546,1.08582 1.654356,1.57745 2.739961,1.40503 9.366738,-0.22982 18.752198,0.28765 28.106638,-0.32916 1.16373,-0.44996 1.50704,-1.85765 1.44466,-2.98378 0.7966,-4.99092 0.2468,-10.06876 0.46327,-15.09871 0.0695,-1.75744 0.15667,-3.53866 0.46934,-5.26047 0.85913,-1.14961 1.82204,-2.24277 2.45653,-3.54152 1.16999,-1.483682 2.7527,-2.858327 3.02948,-4.833782 1.02426,-3.603149 1.9599,-7.232674 2.48699,-10.93849 0.26329,-1.597205 0.67992,-3.258623 0.32308,-4.870356 -0.18542,-0.386163 -0.11896,-0.840609 0.25905,-1.085011 1.43076,-1.556298 3.36988,-3.010668 3.6543,-5.242185 0.0448,-1.834239 -1.45714,-3.135342 -2.60586,-4.361376 -1.17463,-1.379449 -2.16935,-3.159286 -4.00173,-3.718295 -0.38483,-0.416112 -0.0549,-1.033287 -0.34746,-1.496461 -0.604,-1.701296 -2.39888,-2.433712 -3.60247,-3.636004 -1.52226,-1.322619 -3.0874,-2.64777 -4.99836,-3.346465 0.50907,-1.415044 -0.27911,-3.055454 -1.61228,-3.69696 -2.26692,-1.893758 -4.81186,-3.553503 -7.63165,-4.489383 -0.43814,-0.100796 -0.88349,-0.141345 -1.33797,-0.118863 -1.00813,-1.451953 -2.45855,-2.495638 -3.8585,-3.538475 -1.59914,-1.050859 -3.29216,-2.054779 -5.153805,-2.535755 -0.0234,6.05e-4 -0.0467,4.7e-5 -0.0701,0 z"
     style="fill:none;fill-opacity:1;stroke:none;stroke-opacity:1;marker-start:" />
  <path
     inkscape:connector-curvature="0"
     id="path5540"
     d="m 98.987235,43.643102 c -0.30818,-5.55e-4 -0.63427,0.100494 -0.9631,0.30173 -0.67266,0.41167 -1.089695,0.873519 -2.182215,2.407748 -1.739118,2.442322 -2.204298,3.198987 -2.55709,4.166319 -0.23719,0.650421 -0.664353,1.302334 -1.283116,1.956676 -0.510311,0.539657 -0.973846,1.15626 -1.027102,1.368454 -0.105098,0.41879 0.183218,1.103297 0.463262,1.103297 0.09558,0 0.596327,0.270258 1.112441,0.600413 0.516133,0.330155 1.040913,0.600413 1.167301,0.600413 0.126397,0 0.659018,0.231037 1.185587,0.512028 0.526559,0.280991 1.279625,0.561856 1.673232,0.624795 0.393579,0.06294 0.91865,0.299034 1.1673,0.524219 0.46186,0.357397 1.09973,0.499252 1.66104,0.649177 0.612685,0.125846 1.321345,0.113729 1.597045,-0.06095 0.12819,-0.08122 0.39845,-0.418917 0.60041,-0.749755 0.20199,-0.330818 0.87783,-1.36428 1.50256,-2.29498 0.62472,-0.930719 1.30021,-2.013243 1.49951,-2.407748 0.19931,-0.394505 0.4494,-0.773068 0.55469,-0.83814 0.19028,-0.117522 1.52694,-2.892555 1.52694,-3.169693 0,-0.07975 -0.36151,-0.477756 -0.80461,-0.883857 -0.44308,-0.406111 -1.1157,-1.026908 -1.49341,-1.380646 -0.3777,-0.353737 -0.74549,-0.643082 -0.81986,-0.643082 -0.0744,0 -0.66395,-0.337255 -1.3075,-0.749754 -0.64358,-0.412499 -1.35792,-0.808682 -1.58789,-0.880809 -0.22997,-0.07213 -0.60099,-0.275383 -0.825955,-0.451072 -0.25904,-0.202294 -0.5513,-0.304223 -0.85947,-0.304778 z"
     style="fill:#000000;fill-opacity:1;stroke:none;stroke-opacity:1;marker-start:" />
  <path
     inkscape:connector-curvature="0"
     id="path5536"
     d="m 88.61258,54.813224 c -0.229733,-0.0013 -0.398809,0.111304 -0.78328,0.365734 -0.647885,0.42864 -2.066396,2.035001 -2.066396,2.340696 0,0.07796 -0.314009,0.478092 -0.697942,0.886905 -0.383894,0.408744 -0.887558,1.139983 -1.118536,1.624468 -0.230988,0.484427 -0.648349,1.170017 -0.929574,1.523891 -0.281225,0.353884 -0.512027,0.773376 -0.512027,0.932621 0,0.159246 -0.200188,0.475352 -0.444976,0.704038 -0.244788,0.228686 -0.564971,0.649631 -0.710134,0.932621 -0.145162,0.282952 -0.542749,0.832152 -0.883856,1.222161 -0.341118,0.390019 -0.838106,1.045043 -1.103298,1.45684 -0.265191,0.411777 -0.664751,0.850214 -0.899095,1.331881 -0.198469,0.407928 -0.247263,0.861401 -0.417546,1.295307 -0.170284,0.433906 -0.339214,0.83256 -0.606509,1.301403 -0.267295,0.468844 -0.790775,0.99109 -1.017959,1.487318 -0.227184,0.496227 -0.611702,1.161322 -0.853379,1.478174 -0.241677,0.316843 -0.438881,0.741011 -0.438881,0.941765 0,0.357151 2.515693,4.261009 3.011209,4.67225 0.138013,0.114548 0.499709,0.332003 0.804614,0.484597 0.912801,1.571131 2.288379,2.892682 3.041687,4.34309 0.520932,1.009133 1.191137,2.179891 1.490365,2.602806 0.963053,1.882095 3.055095,3.02243 3.568953,4.42538 0.2684,0.679777 1.457304,2.529147 2.362032,3.672577 0.651591,0.823438 1.398278,1.983204 2.057253,3.200171 0.258578,0.477561 0.575752,0.993085 0.707085,1.142919 0.813371,0.927993 1.228476,2.802153 0.798519,3.605523 -0.19102,0.35686 -0.461278,2.09481 -0.704038,4.53205 -0.0927,0.93062 -0.24344,1.83084 -0.335256,2.00239 -0.09181,0.17156 -0.168706,0.8383 -0.170676,1.48123 -0.002,0.64291 -0.119853,1.67269 -0.262109,2.28583 -0.142256,0.61317 -0.367709,1.73235 -0.502884,2.48699 -0.135175,0.75468 -0.378554,1.87385 -0.539457,2.48699 -0.347213,1.32308 -0.402588,4.01911 -0.409115,5.16909 -0.0065,1.14998 -0.0476,2.13981 0.44874,2.3541 4.950569,0.0188 9.901236,0.0117 14.851846,0.014 8.14767,0.004 13.3175,-0.0549 13.59006,-0.15849 0.40323,-0.15331 0.44193,-0.25128 0.44193,-1.17339 0,-0.55338 0.11264,-1.38695 0.25296,-1.85001 0.20153,-0.66505 0.25271,-1.85139 0.24078,-5.64449 -0.0234,-7.43142 0.18212,-13.09773 0.49679,-13.71806 0.14356,-0.28303 0.71313,-1.02452 1.26483,-1.6458 0.58372,-0.65739 0.69922,-1.04775 1.00272,-1.511704 0.3035,-0.463957 0.35366,-0.764789 0.81985,-1.270926 1.78795,-1.941022 2.07625,-2.336132 2.18526,-2.980731 0.0608,-0.359296 0.25047,-1.040049 0.42059,-1.511699 0.49934,-1.384328 0.69305,-2.064988 0.86557,-3.032544 0.0894,-0.501006 0.31415,-1.625053 0.49679,-2.496133 0.67009,-1.193855 0.53181,-2.160173 0.73009,-3.253969 0.30633,-1.68979 0.6147,-3.213328 0.70846,-5.10305 0.0434,-0.873168 -0.32341,-0.978919 -1.1673,-0.335256 -0.0571,0.04351 -0.16763,0.121911 -0.16763,0.121911 l -1.06063,1.00272 c -0.28682,0.271169 -0.79284,0.835093 -0.92957,0.835093 -0.0755,0 -0.68568,0.521429 -1.35626,1.158157 -1.77727,1.687613 -2.60909,2.38873 -3.10569,2.614997 -0.2421,0.110315 -0.57515,0.426036 -0.73756,0.70099 -0.37659,0.63743 -0.71242,0.634758 -1.04539,-0.0091 -0.14489,-0.280192 -0.43486,-0.599628 -0.64613,-0.707086 -0.46697,-0.237581 -1.39613,-1.084108 -2.40165,-2.191355 -0.14015,-0.15435 -0.69846,-0.627 -1.24045,-1.051485 -0.54197,-0.424486 -1.23579,-0.985404 -1.54218,-1.243495 -0.53514,-0.45077 -2.37665,-1.143985 -3.09045,-1.164253 -0.18863,-0.0054 -0.64978,-0.126456 -1.0271,-0.268205 -2.33768,-0.878103 -8.0063,-1.997082 -8.51551,-1.682376 -0.29012,0.179259 -0.13853,0.6799 0.38402,1.270925 0.29196,0.330205 0.73721,0.910571 0.98749,1.29226 0.5447,0.830752 1.35811,1.819575 3.19712,3.873731 1.90755,2.130619 2.62003,3.05676 2.743,3.568953 0.0581,0.24197 0.32938,0.903051 0.60346,1.469031 0.2741,0.566059 0.66419,1.491273 0.86557,2.057253 0.2014,0.566 0.47392,1.247694 0.60651,1.514748 0.13259,0.267054 0.24078,0.597526 0.24078,0.734515 0,0.13699 0.18957,0.623006 0.42059,1.078915 0.23102,0.455949 0.53196,1.309172 0.66747,1.895721 0.27376,1.185173 0.98488,2.10059 1.95667,2.517468 0.30658,0.131508 0.55775,0.346423 0.55775,0.475454 0,0.333935 -1.07801,1.109725 -1.95363,1.408075 -0.48007,0.16358 -0.81261,0.40595 -0.93872,0.6827 -0.13458,0.29532 -0.20453,4.38177 -0.19506,6.57407 0.01,2.25496 0.20663,4.50561 0.25906,6.75998 0.0202,0.86638 0.33307,2.17344 0.0213,2.59976 -0.22557,0.30848 -0.2435,0.30579 -0.37488,-0.0945 -0.0755,-0.22988 -0.14208,-1.46964 -0.14934,-2.75215 -0.008,-1.47064 -0.084,-2.42052 -0.20725,-2.57233 -0.10749,-0.13244 -0.20981,-0.85764 -0.22553,-1.61228 -0.0658,-3.15916 -0.62868,-7.72202 -1.04844,-8.50635 -0.0892,-0.16678 -0.16153,-0.68892 -0.16153,-1.16121 0,-0.501 -0.0883,-0.91521 -0.21335,-0.99358 -0.11791,-0.0739 -1.04193,-0.137757 -2.05116,-0.140195 -2.08693,-0.005 -2.7528,-0.267849 -1.51779,-0.600413 0.77194,-0.207834 2.31315,-1.12311 3.23065,-1.917055 0.30985,-0.268127 0.67008,-0.487645 0.79852,-0.487645 0.24021,0 1.29835,-1.102956 1.29835,-1.353215 0,-0.198862 -0.72479,-1.528426 -1.26178,-2.316315 -0.25007,-0.366904 -0.45412,-0.767948 -0.45412,-0.893 0,-0.125052 -0.23034,-0.489888 -0.51203,-0.81071 -0.56615,-0.644862 -1.35255,-1.724874 -2.39251,-3.288557 -0.37641,-0.565961 -0.87877,-1.290509 -1.11853,-1.612277 -0.23977,-0.321758 -0.43584,-0.675481 -0.43584,-0.78328 0,-0.107799 -0.27722,-0.461254 -0.61565,-0.786328 -0.33841,-0.325064 -0.7632,-0.878941 -0.94481,-1.231304 -0.18161,-0.352352 -0.52428,-0.766705 -0.7589,-0.92043 -0.23461,-0.153725 -0.42669,-0.364315 -0.42669,-0.46631 0,-0.221879 -0.74641,-1.354274 -1.40807,-2.136496 -0.26154,-0.309235 -0.632525,-0.873484 -0.825955,-1.252638 -0.52754,-1.034003 -1.87681,-2.740664 -2.28889,-2.895393 -0.199598,-0.07493 -0.67416,-0.216433 -1.05148,-0.313922 -1.079062,-0.278738 -1.772834,-0.576299 -3.383039,-1.450744 -0.986506,-0.535717 -1.709362,-0.813758 -2.109065,-0.813758 -0.746692,0 -1.860356,-0.44404 -1.712853,-0.682703 0.05952,-0.09631 0.254131,-0.176772 0.432785,-0.176772 0.667586,0 1.140265,-0.417912 2.099922,-1.865242 0.856139,-1.291187 0.987481,-1.597458 0.987481,-2.310219 0,-0.45154 -0.07071,-0.950518 -0.155437,-1.109393 -0.243244,-0.456075 -0.293304,-1.282137 -0.08229,-1.353215 0.105624,-0.0356 0.964201,0.691841 1.907912,1.615324 0.97907,1.214505 2.355175,1.744557 3.735144,2.628471 1.64766,1.055387 4.082175,-0.214604 5.327645,-0.237277 1.08553,-0.137373 2.5835,-1.179692 3.2501,-1.935634 0.46881,-0.552275 0.93582,-1.775249 0.93582,-1.775249 0.0775,-0.548045 0.22629,-1.151843 0.32917,-1.344072 0.10287,-0.19223 0.18591,-0.735286 0.18591,-1.203874 0,-0.844894 -0.008,-0.857651 -1.06063,-1.639707 -0.58369,-0.433741 -1.21964,-0.788986 -1.41417,-0.789376 -0.19453,-3.9e-4 -0.70319,-0.232816 -1.12768,-0.515075 -0.42444,-0.282268 -1.04135,-0.562683 -1.3715,-0.624795 -0.55974,-0.105258 -2.07967,-0.790213 -3.187985,-1.185587 l -3.212363,-1.145971 c -0.409651,-0.146138 -0.821326,-0.260917 -1.145966,-0.45412 -1.339025,-0.79688 -1.845503,-1.048437 -2.121257,-1.048437 -0.147269,0 -0.758668,-0.270258 -1.359311,-0.600413 -0.600642,-0.330155 -1.2129,-0.597365 -1.35931,-0.597365 -0.146391,0 -0.659209,-0.128207 -1.139871,-0.283444 C 89.0052,54.885109 88.791222,54.814287 88.61254,54.813262 Z"
     style="fill:#000000;fill-opacity:1;stroke:none;stroke-opacity:1;marker-start:" />
  <path
     sodipodi:nodetypes="cccccccc"
     inkscape:connector-curvature="0"
     id="path5528"
     d="m 146.51286,114.05882 c 0.61984,0.20373 9.04749,1.45211 9.04749,1.45211 l -47.77715,-47.14867 -13.717445,9.98248 32.554255,28.52372 -9.59248,-0.60005 55.11259,32.29847 z"
     style="fill:#000000;fill-opacity:1;fill-rule:evenodd;stroke:#ffffff;stroke-width:1;stroke-linecap:butt;stroke-linejoin:miter;stroke-miterlimit:4;stroke-dasharray:none;stroke-opacity:1;marker-start:" />
  <path
     inkscape:connector-curvature="0"
     id="path5534"
     d="m 117.57261,57.830528 c -0.12489,-0.0014 -0.22979,0.01631 -0.29868,0.05486 -0.15228,0.08514 -0.59823,0.787601 -0.99358,1.563512 -0.3953,0.775941 -0.96587,1.721802 -1.26788,2.099922 -0.302,0.37815 -0.71743,0.965508 -0.92043,1.304451 -0.203,0.338914 -0.59941,0.906908 -0.88385,1.26483 -0.28445,0.357922 -0.51813,0.759244 -0.51813,0.889952 0,0.242067 -0.70603,1.435262 -2.01458,3.404373 -0.4009,0.603295 -0.72842,1.161049 -0.72842,1.240447 0,0.07939 -0.54964,0.876064 -1.21911,1.767714 -0.66944,0.89161 -1.41658,1.968024 -1.66104,2.392509 -0.24447,0.424485 -0.62745,0.995459 -0.85033,1.267877 -0.61524,0.751949 -0.45451,1.113304 0.81375,1.846956 2.02948,1.173957 4.13407,2.202864 4.51377,2.203547 0.20585,3.9e-4 0.72148,0.229846 1.14596,0.512027 0.42452,0.282181 0.94258,0.514685 1.15207,0.515075 0.48589,9.76e-4 3.63502,-3.123854 4.42233,-4.388806 0.7064,-1.134945 1.77738,-2.572357 2.22793,-2.986827 0.2563,-0.235844 0.70031,-0.77634 0.98748,-1.200826 0.28722,-0.424446 0.89857,-1.210715 1.35931,-1.749427 0.46075,-0.53875 0.95614,-1.234966 1.10025,-1.545225 0.14412,-0.310338 0.52715,-0.983624 0.85033,-1.496461 0.32318,-0.512905 0.71389,-1.261982 0.86862,-1.667137 0.35441,-0.928184 0.12913,-1.583628 -0.77414,-2.249263 -0.70504,-0.519538 -1.52362,-1.210189 -3.06302,-2.578424 -0.59083,-0.525087 -1.46846,-1.168808 -1.95058,-1.432458 -0.4821,-0.26365 -0.96354,-0.548397 -1.06977,-0.630891 -0.29764,-0.231127 -0.85359,-0.398016 -1.22826,-0.402307 z"
     style="fill:#000000;fill-opacity:1;stroke:#ffffff;stroke-opacity:1;marker-start:" />
  <path
     inkscape:connector-curvature="0"
     id="path5538"
     d="m 108.37745,49.699045 c -0.12784,0.0038 -0.22946,0.02465 -0.29258,0.0701 -0.29421,0.211823 -0.44361,0.283337 -0.88996,0.423642 -0.14542,0.04574 -0.61578,0.690896 -1.04539,1.432458 -0.42962,0.74161 -1.00612,1.721026 -1.28006,2.176116 -0.27394,0.45507 -0.69071,1.153208 -0.92653,1.551321 -0.23583,0.398143 -0.62632,0.990729 -0.86862,1.316642 -1.11642,1.501655 -1.27781,2.803579 -0.37183,3.005113 0.57221,0.127276 5.32356,2.435149 5.74202,2.788721 0.39067,0.330136 0.37935,0.937376 -0.0427,2.258407 -0.18867,0.590635 -0.3444,1.527943 -0.3444,2.081635 0,0.888977 0.20328,1.581198 0.50318,1.581198 0.59967,-0.6263 1.75966,-1.725851 2.59336,-2.632683 0.24186,-0.263074 0.39434,-0.36569 0.69794,-0.813758 0.30361,-0.448048 0.81056,-1.105877 1.12464,-1.459888 0.31406,-0.35401 0.56993,-0.726347 0.56993,-0.828996 0,-0.10265 0.27026,-0.504245 0.60041,-0.889953 0.33016,-0.385707 0.60042,-0.799201 0.60042,-0.92043 0,-0.121238 0.21647,-0.47343 0.48155,-0.78328 0.62815,-0.734198 1.24713,-1.804433 1.41722,-2.450417 0.0745,-0.283029 0.25279,-0.931524 0.39621,-1.441601 0.3135,-1.115117 0.20649,-1.385634 -0.80157,-2.017632 -0.39684,-0.248796 -1.14527,-0.840773 -1.66409,-1.313594 -0.53514,-0.487752 -1.49401,-1.109032 -2.21574,-1.438553 -0.69967,-0.319446 -1.48362,-0.732458 -1.74333,-0.917382 -0.63053,-0.448995 -1.68614,-0.793505 -2.24012,-0.777185 z"
     style="fill:#000000;fill-opacity:1;stroke:#ffffff;stroke-opacity:1;marker-start:" />
  <path
     inkscape:connector-curvature="0"
     id="path5532"
     d="m 127.20665,66.489277 c -0.35605,0.0056 -0.74227,0.501885 -2.42603,2.61195 -1.17659,1.474443 -3.08822,3.640256 -4.0566,4.593007 -0.26853,0.264187 -0.48765,0.562538 -0.48765,0.664417 0,0.10182 -0.50234,0.759649 -1.11548,1.459888 -0.61319,0.700219 -1.11549,1.344217 -1.11549,1.432457 0,0.147074 -0.79538,1.106199 -2.31937,2.794816 -0.32714,0.362506 -0.59431,0.818259 -0.59431,1.011864 0,0.395675 3.22557,3.782147 3.97735,4.175462 0.76795,0.401722 1.09047,0.291246 2.48699,-0.862523 1.96097,-1.620086 2.40362,-1.797178 2.75215,-2.118208 l 2.97464,-2.739956 c 0.20599,-0.189745 0.36722,-0.436507 0.5425,-0.530315 0.2279,-0.12196 0.54874,-0.450033 0.71318,-0.728419 0.16444,-0.278348 0.81357,-1.024046 1.4416,-1.657994 1.48986,-1.503898 2.59684,-2.925227 2.63024,-3.370847 0.0692,-0.923795 -0.11513,-1.26088 -1.55437,-2.843581 -0.82783,-0.910336 -1.8192,-2.079489 -2.20355,-2.599758 -0.39766,-0.538312 -0.93787,-1.046067 -1.25263,-1.176444 -0.15881,-0.06578 -0.27449,-0.117695 -0.39317,-0.115816 z"
     style="fill:#000000;fill-opacity:1;stroke:#ffffff;stroke-opacity:1;marker-start:" />
  <path
     inkscape:connector-curvature="0"
     id="path3099"
     d="m 105.83323,70.225878 c -0.24148,-0.0059 -0.83623,0.454585 -1.52784,0.635006 -0.79037,0.206196 -1.59772,0.485726 -2.1637,0.562753 -1.33449,0.181667 -2.628635,0.768132 -4.397185,0.716992 -0.724142,-0.02094 -1.221882,-1.569451 -2.218445,-1.827977 -0.81177,-0.210588 -1.302552,1.495183 -0.757779,1.68524 -0.129908,0.338621 3.160604,2.389813 3.999514,2.641155 0.35412,0.106092 1.14302,0.543558 1.752475,0.969195 0.6094,0.425646 1.22391,0.773746 1.36541,0.774136 0.58293,0.0017 1.32843,-1.304045 1.95667,-1.990202 0.45162,-0.493244 0.89102,-0.998899 1.30141,-1.526938 0.73035,-0.939742 2.70057,-2.670045 2.06159,-2.915243 -0.0162,-0.0062 -1.33763,0.276726 -1.37212,0.275883 z"
     style="fill:#000000;fill-opacity:1;stroke:none;stroke-opacity:1;marker-start:" />
  <path
     sodipodi:nodetypes="ccssssc"
     inkscape:connector-curvature="0"
     id="path3101"
     d="m 100.95282,58.877825 c 2.92417,0.932639 5.1054,2.112923 7.09145,3.358268 0,0 0.51097,1.613721 0.0128,2.611584 -0.49818,0.997864 -2.63263,2.271328 -4.33659,1.840831 -1.70396,-0.430496 -4.955488,-2.13783 -5.247258,-2.703684 -0.29176,-0.565855 0.0887,-2.143551 0.76587,-3.752387 0.67715,-1.608839 0.973808,-1.639981 1.713738,-1.354612 z"
     style="fill:#ffffff;fill-opacity:1;stroke:none;stroke-width:0.39011613;marker-start:" />
  <path
     d="m 47.130177,11.681173 -1.384505,2.769057 14.537294,8.30717 c 0,6.922641 -2.769008,12.460754 -8.999277,15.922075 l -14.537293,-8.30717 -0.692253,1.384528 c 3.46126,10.383963 10.383781,17.306605 24.228823,17.306605 3.46126,0 13.845042,10.383962 19.383059,15.922075 L 89.273569,52.073644 C 83.735553,46.535531 72.743504,35.910419 72.743504,32.449098 c 0,-12.460756 -3.461261,-20.767925 -25.613327,-20.767925 z"
     id="path5522"
     inkscape:connector-curvature="0"
     style="stroke:#ffffff;stroke-width:0.99999994;stroke-opacity:1;marker-start:"
     sodipodi:nodetypes="ccccccsccsc" />
  <path
     sodipodi:nodetypes="ccsccc"
     inkscape:connector-curvature="0"
     id="path3101-7"
     d="m 116.8913,73.003206 c 0,0 -0.36293,3.2304 -1.60827,5.21645 0,0 -2.98872,1.26097 -3.98658,0.7628 -0.99787,-0.49818 -3.45831,-3.720898 -3.21584,-5.46159 1.70478,-2.912284 3.58108,-4.23138 3.58108,-4.23138 z"
     style="fill:#ffffff;fill-opacity:1;stroke:none;stroke-width:0.39011613;marker-start:" />
  <path
     sodipodi:nodetypes="ccsccc"
     inkscape:connector-curvature="0"
     id="path3101-7-4"
     d="m 123.55045,80.183993 c 0,0 -0.86293,0.9804 -2.10827,2.96645 0,0 -1.73872,1.26097 -2.73658,0.7628 -0.99787,-0.49818 -1.58331,-1.720898 -1.34084,-3.46159 1.70478,-2.912284 3.20608,-3.48138 3.20608,-3.48138 z"
     style="fill:#ffffff;fill-opacity:1;stroke:none;stroke-width:0.39011613;marker-start:" />
  <text
     xml:space="preserve"
     style="font-style:normal;font-weight:normal;font-size:26.36319542px;line-height:125%;font-family:Sans;letter-spacing:0px;word-spacing:0px;fill:#000000;fill-opacity:1;stroke:none;stroke-width:1px;stroke-linecap:butt;stroke-linejoin:miter;stroke-opacity:1"
     x="140.30872"
     y="-26.95513"
     id="text5663"
     sodipodi:linespacing="125%"
     transform="matrix(0.70710678,0.70710678,-0.70710678,0.70710678,0,0)"><tspan
       sodipodi:role="line"
       id="tspan5665"
       x="140.30872"
       y="-26.95513"
       style="font-style:normal;font-variant:normal;font-weight:bold;font-stretch:normal;font-size:2.5px;font-family:'Ubuntu Mono';-inkscape-font-specification:'Ubuntu Mono'">&lt;/&gt;</tspan></text>
  <g
     transform="matrix(0.01501703,0.0125342,-0.0125342,0.01501703,111.00473,62.514071)"
     id="layer1"
     inkscape:label="Layer 1"
     style="fill:#000000;fill-opacity:1;stroke:none;stroke-opacity:1">
    <path
       sodipodi:nodetypes="csssssssssssscssssscscc"
       style="fill:#000000;fill-opacity:1;stroke:none;stroke-opacity:1"
       d="m 414.14131,586.97254 c -12.1976,-2.7014 -19.44097,-7.71027 -23.93346,-16.55023 -3.46688,-6.82186 -3.80103,-9.92822 -1.94551,-18.08629 2.27406,-9.99829 3.2912,-12.55402 26.43146,-66.41371 22.70913,-52.8562 23.353,-54.51386 26.02407,-67 2.67694,-12.51355 2.57749,-21.84729 -0.29335,-27.53004 -2.64368,-5.2331 -7.747,-8.96996 -12.25,-8.96996 -4.17724,0 -9.53685,-3.64335 -11.79785,-8.01993 -3.28585,-6.36036 -0.55535,-13.40509 6.7006,-17.28768 4.05553,-2.17007 4.5911,-2.19239 52.59725,-2.19239 48.00614,0 48.54171,0.0223 52.59724,2.19239 2.25348,1.20582 4.94302,3.45582 5.97674,5 2.34149,3.49772 2.35481,10.24114 0.0272,13.79344 -2.3146,3.53252 -7.43125,6.50589 -11.20336,6.51043 -4.41063,0.005 -9.52625,3.78425 -12.14788,8.9737 -2.73131,5.40655 -2.97669,13.97828 -0.73801,25.77968 2.27999,12.0191 4.39003,17.49241 28.23908,73.25036 22.46102,52.51281 27.13176,65.65016 25.69829,72.28134 -2.22471,10.29142 -10.26522,18.95793 -21.16899,22.81712 l -6.78037,2.39979 -57.99999,0.19408 c -45.29894,0.15157 -59.32118,-0.0985 -64.03321,-1.1421 z"
       id="path2989"
       inkscape:connector-curvature="0" />
    <path
       sodipodi:nodetypes="sscsssssscssssssc"
       style="fill:#000000;fill-opacity:1;stroke:none;stroke-opacity:1"
       d="m 496.89269,338.80819 c -7.53541,-3.82648 -9.98661,-12.69891 -5.31797,-19.24902 2.48881,-3.49181 7.37484,-6.13958 11.31767,-6.13312 5.67161,0.009 12.77464,7.51356 12.77464,13.49626 0,9.05044 -10.84157,15.91415 -18.77434,11.88588 z m -48.83697,-12.92684 c -3.38699,-5.16921 2.90863,-11.46483 8.07784,-8.07784 2.79119,1.82887 3.55637,7.20339 1.34096,9.4188 -2.21541,2.21541 -7.58993,1.45023 -9.4188,-1.34096 z m 26.1188,-27.92798 c -0.55,-0.19586 -2.22925,-0.62698 -3.73166,-0.95804 -3.66486,-0.80755 -9.74943,-6.2835 -11.4173,-10.27528 -0.74307,-1.77843 -1.35104,-5.63486 -1.35104,-8.56984 0,-15.0034 17.10884,-23.87756 29.81865,-15.46661 8.67525,5.74101 10.9389,19.52243 4.51262,27.47336 -1.67383,2.07094 -4.34562,4.50917 -5.93729,5.41828 -2.8726,1.64072 -9.9763,3.06106 -11.89398,2.37813 z"
       id="path2989-1"
       inkscape:connector-curvature="0" />
  </g>
  <text
     xml:space="preserve"
     style="font-style:normal;font-weight:normal;font-size:4.49781322px;line-height:125%;font-family:Sans;letter-spacing:0px;word-spacing:0px;fill:#000000;fill-opacity:1;stroke:none;stroke-width:1px;stroke-linecap:butt;stroke-linejoin:miter;stroke-opacity:1"
     x="13.757867"
     y="130.85667"
     id="text5717"
     sodipodi:linespacing="125%"
     transform="matrix(0.42038314,-1.030043,0.72812496,0.59469557,0,0)"><tspan
       sodipodi:role="line"
       id="tspan5719"
       x="13.757867"
       y="130.85667"
       style="font-style:normal;font-variant:normal;font-weight:normal;font-stretch:normal;font-family:'Droid Sans Mono';-inkscape-font-specification:'Droid Sans Mono'">π</tspan></text>
  <path
     style="fill:none;fill-rule:evenodd;stroke:#000000;stroke-width:0.3;stroke-linecap:butt;stroke-linejoin:miter;stroke-opacity:1;marker-start:url(#Arrow1Mstart);marker-end:url(#marker4707);stroke-miterlimit:4;stroke-dasharray:none"
     d="m 102.17222,62.490688 c 0,0 2.81724,1.848491 2.98081,1.890287 l 1.64398,-3.66454"
     id="path5859"
     inkscape:connector-curvature="0" />
  <path
     style="fill:none;fill-rule:evenodd;stroke:#000000;stroke-width:0.5;stroke-linecap:round;stroke-linejoin:round;stroke-miterlimit:4;stroke-dasharray:none;stroke-opacity:1"
     d="m 105.69678,60.730429 c 0,0 -3.98392,-1.163836 -1.01802,2.327305 2.49826,2.940695 -1.17889,2.163356 -1.17889,2.163356"
     id="path6977"
     inkscape:connector-curvature="0"
     sodipodi:nodetypes="csc" />
</svg>
